<?xml version="1.0" standalone="no"?>
<!DOCTYPE svg PUBLIC "-//W3C//DTD SVG 20010904//EN"
 "http://www.w3.org/TR/2001/REC-SVG-20010904/DTD/svg10.dtd">
<svg version="1.0" xmlns="http://www.w3.org/2000/svg"
 width="2048.000000pt" height="2048.000000pt" viewBox="0 0 2048.000000 2048.000000"
 preserveAspectRatio="xMidYMid meet">
<metadata>
Created by potrace 1.11, written by Peter Selinger 2001-2013
</metadata>
<g transform="translate(0.000000,2048.000000) scale(0.100000,-0.100000)"
fill="#000000" stroke="none">
<path d="M10505 15166 c-5 -2 -41 -13 -80 -25 -38 -12 -88 -32 -110 -46 -22
-13 -62 -36 -90 -51 -61 -32 -215 -185 -274 -272 -90 -132 -183 -359 -226
-547 -7 -33 -23 -96 -35 -140 -11 -44 -23 -93 -25 -110 -3 -16 -21 -97 -40
-180 -19 -82 -36 -166 -39 -185 -2 -19 -9 -60 -15 -90 -11 -51 -54 -314 -67
-405 -3 -22 -9 -56 -14 -75 -5 -19 -12 -66 -16 -105 -7 -67 -9 -72 -53 -115
-69 -67 -257 -217 -399 -318 -49 -35 -119 -87 -186 -138 -21 -16 -53 -38 -71
-49 -135 -82 -168 -103 -230 -149 -38 -29 -88 -63 -110 -76 -22 -13 -56 -36
-75 -51 -19 -15 -49 -36 -67 -46 -31 -18 -92 -54 -313 -190 -98 -60 -167 -98
-362 -200 -15 -8 -35 -16 -45 -17 -18 -4 -68 -26 -213 -93 -325 -152 -636
-209 -804 -148 -74 27 -82 32 -137 85 -26 26 -40 52 -54 102 -9 36 -15 77 -12
90 3 13 7 28 8 33 1 6 14 38 28 73 30 73 105 172 168 222 24 19 83 83 130 143
48 59 90 107 93 107 3 0 14 14 24 32 19 31 19 31 0 24 -10 -5 -28 -11 -39 -14
-30 -8 -189 -116 -294 -201 -157 -127 -214 -207 -247 -347 -17 -74 -20 -199
-6 -217 5 -7 15 -28 22 -47 21 -54 91 -131 154 -169 31 -19 98 -45 149 -58 80
-21 107 -24 207 -19 109 5 134 10 304 61 26 8 57 15 67 15 10 0 20 4 23 8 3 5
40 19 83 32 73 22 99 32 198 82 22 11 69 31 105 44 62 23 270 123 280 135 3 3
32 19 65 36 100 51 100 52 310 189 28 18 68 41 90 51 22 10 63 33 90 50 28 17
92 58 143 90 52 32 123 79 158 105 35 26 64 45 64 43 0 -3 9 4 19 14 10 10 41
31 67 47 27 15 67 42 89 59 22 17 60 43 85 58 25 15 58 37 75 50 16 12 81 60
145 106 63 46 135 99 159 118 72 54 72 55 35 -113 -14 -66 -30 -148 -35 -184
-5 -36 -14 -79 -19 -95 -6 -17 -12 -46 -14 -65 -2 -19 -6 -42 -9 -50 -3 -8 -8
-37 -11 -65 -7 -62 -34 -185 -92 -419 -24 -98 -44 -192 -44 -209 0 -17 -7 -53
-15 -81 -26 -94 -54 -210 -75 -316 -11 -58 -25 -118 -30 -135 -8 -26 -22 -80
-71 -275 -34 -137 -39 -162 -39 -182 0 -13 -11 -54 -25 -92 -13 -38 -22 -73
-19 -78 3 -4 1 -8 -4 -8 -5 0 -14 -19 -20 -42 -8 -35 -68 -210 -95 -278 -8
-20 -38 -112 -41 -125 -2 -5 -6 -22 -10 -37 l-8 -27 -37 16 c-20 8 -76 26
-126 39 -49 13 -124 35 -165 49 -126 40 -251 58 -425 59 -88 1 -178 -1 -200
-5 -120 -21 -222 -43 -240 -52 -10 -5 -33 -9 -50 -9 -47 2 -227 -50 -295 -85
-14 -7 -30 -13 -36 -13 -6 0 -19 -9 -29 -20 -10 -11 -21 -17 -25 -15 -4 3 -13
-2 -20 -10 -7 -8 -18 -15 -24 -15 -11 0 -148 -79 -200 -115 -15 -11 -48 -39
-72 -62 -25 -24 -48 -43 -52 -43 -7 0 -68 -59 -119 -115 -97 -105 -237 -332
-293 -475 -78 -197 -101 -299 -103 -449 -1 -148 19 -237 82 -366 55 -111 182
-240 291 -293 14 -6 32 -16 40 -21 35 -22 129 -60 185 -75 77 -20 120 -26 230
-33 191 -12 492 79 646 195 294 221 394 322 547 552 100 150 350 634 377 730
4 14 22 59 40 100 18 41 42 105 54 141 11 36 31 88 43 115 12 27 23 55 24 63
2 7 7 18 13 24 6 6 11 19 11 29 0 10 5 18 11 18 28 0 99 -27 163 -62 38 -21
72 -38 77 -38 4 0 9 -3 11 -7 3 -9 31 -24 163 -91 50 -25 107 -56 128 -69 20
-13 37 -20 37 -16 0 5 6 1 13 -8 7 -9 39 -28 72 -43 101 -46 188 -94 250 -136
59 -41 126 -76 158 -84 15 -3 27 -11 27 -16 0 -6 8 -10 18 -10 11 0 27 -9 37
-20 10 -11 27 -23 39 -26 11 -4 50 -24 85 -45 34 -22 68 -39 75 -39 6 0 25 -7
41 -16 77 -41 150 -79 155 -79 5 0 94 -43 249 -119 36 -17 67 -31 70 -32 4 0
23 -8 45 -17 21 -9 40 -17 43 -17 4 0 70 -31 209 -96 28 -13 54 -24 58 -24 11
0 341 -138 434 -181 45 -22 85 -39 89 -39 5 0 44 -17 148 -65 50 -23 271 -100
415 -145 74 -23 149 -47 165 -54 17 -7 57 -19 90 -25 73 -15 211 -50 245 -62
14 -5 36 -10 50 -13 14 -2 44 -9 67 -15 161 -44 521 -95 728 -105 89 -4 271
18 357 44 36 11 71 20 78 20 25 0 178 79 259 133 46 32 87 57 91 57 18 0 348
360 359 393 10 30 65 67 114 76 51 10 152 43 232 76 39 17 166 88 291 163 74
44 210 160 217 184 6 21 -6 15 -77 -32 -80 -54 -480 -248 -565 -274 -47 -14
-87 -24 -89 -22 -2 2 3 17 11 33 32 62 69 199 68 253 -2 127 -78 300 -157 356
-15 10 -36 27 -46 37 -11 10 -55 30 -99 43 -72 23 -84 24 -137 14 -81 -17
-192 -72 -242 -121 -48 -46 -94 -138 -119 -237 -16 -59 -16 -75 -5 -130 25
-122 118 -241 228 -293 36 -17 72 -32 81 -33 8 -1 18 -5 21 -9 4 -4 22 -7 39
-7 47 0 146 -22 143 -31 -9 -27 -314 -320 -400 -384 -203 -152 -332 -191 -653
-199 -155 -3 -322 12 -405 38 -25 8 -67 17 -95 21 -59 7 -116 20 -205 45 -36
10 -82 21 -104 25 -21 3 -46 11 -55 16 -9 5 -77 25 -151 44 -219 55 -581 170
-588 188 -2 4 -12 7 -22 7 -23 0 -167 55 -275 105 -44 20 -116 50 -159 66 -44
17 -114 46 -155 66 -42 20 -154 69 -249 109 -94 41 -223 99 -286 129 -63 30
-122 55 -131 55 -9 0 -13 5 -10 10 3 6 -1 10 -10 10 -19 0 -67 29 -78 47 -4 7
-17 13 -27 13 -10 0 -22 5 -25 10 -3 6 -15 10 -26 10 -10 0 -28 9 -40 21 -12
12 -26 22 -33 23 -13 2 -340 166 -576 289 -91 47 -183 95 -205 106 -98 49
-353 175 -380 188 -16 8 -37 18 -45 23 -18 12 -144 73 -220 107 -30 14 -56 26
-58 28 -5 4 27 111 63 210 55 152 145 449 166 548 10 48 23 96 28 105 5 10 19
60 31 112 12 52 28 124 36 159 9 35 19 85 24 110 5 25 13 64 19 86 5 22 12 60
15 85 6 43 24 131 81 398 30 137 63 291 69 327 3 13 8 30 12 36 3 6 15 55 25
108 20 100 22 109 38 176 23 100 43 204 72 379 37 228 46 255 101 286 22 12
62 41 88 64 63 53 179 136 191 136 5 0 9 5 9 10 0 6 4 9 8 8 5 -2 38 23 75 55
36 32 99 84 140 116 209 159 389 342 560 568 28 38 63 85 79 105 31 41 125
211 181 330 20 43 51 133 68 200 40 156 44 295 10 428 -28 110 -50 153 -111
222 -56 63 -119 100 -211 123 -62 16 -183 28 -204 21z m198 -135 c52 -18 105
-48 132 -76 17 -16 67 -105 59 -105 -3 0 0 -7 7 -16 10 -12 13 -52 13 -148 0
-136 -19 -234 -63 -331 -10 -22 -35 -80 -56 -130 -50 -120 -130 -270 -172
-323 -19 -23 -51 -67 -71 -97 -40 -59 -294 -320 -413 -425 -41 -36 -114 -97
-163 -135 -49 -39 -105 -84 -125 -100 -20 -17 -56 -44 -81 -60 -25 -16 -71
-49 -103 -73 -32 -24 -60 -42 -63 -40 -2 3 0 27 5 54 13 67 30 164 35 194 2
14 9 52 15 85 6 33 13 74 15 90 3 17 10 62 17 100 6 39 11 78 11 88 -1 10 4
31 10 45 11 27 15 50 23 112 2 19 13 67 24 105 11 39 21 87 21 107 0 20 4 39
9 42 4 3 11 38 15 77 7 76 15 110 73 299 36 117 52 151 116 252 21 31 37 59
37 61 0 11 90 139 125 178 57 64 182 148 266 179 67 26 194 21 282 -9z m-2595
-5300 c31 -6 75 -13 97 -17 22 -3 60 -9 85 -14 24 -5 48 -6 51 -4 4 2 20 -1
36 -7 15 -6 46 -14 68 -19 65 -14 77 -17 140 -40 33 -12 65 -23 72 -25 9 -3 6
-21 -11 -67 -13 -35 -40 -108 -60 -163 -20 -55 -41 -108 -46 -117 -6 -10 -10
-23 -10 -29 0 -6 -13 -40 -30 -76 -16 -35 -30 -67 -30 -71 0 -6 -66 -144 -159
-332 -23 -46 -100 -184 -161 -290 -8 -14 -20 -28 -25 -32 -6 -4 -28 -33 -50
-65 -22 -32 -42 -60 -45 -63 -3 -3 -18 -23 -35 -45 -49 -66 -223 -242 -330
-332 -117 -99 -236 -161 -416 -217 -144 -45 -211 -47 -358 -10 -102 26 -245
89 -345 153 -70 44 -131 110 -164 179 -16 34 -34 68 -39 75 -17 22 -42 121
-49 189 -7 79 8 195 41 320 38 140 181 411 278 526 21 24 37 48 37 52 0 25
200 203 267 239 12 6 35 23 50 37 27 25 181 104 203 104 6 0 25 8 43 17 18 9
39 18 48 20 9 1 29 8 45 14 16 7 32 12 36 11 4 -1 38 9 75 22 37 14 95 29 128
35 33 6 71 13 85 16 14 3 46 8 72 10 26 3 57 9 69 14 34 12 271 13 337 2z
m6417 -547 c122 -62 180 -170 180 -339 0 -107 -29 -193 -85 -257 -33 -37 -40
-41 -105 -47 -102 -11 -247 21 -320 71 -39 26 -103 126 -122 191 -19 64 -12
102 39 200 96 184 262 257 413 181z"/>
</g>
</svg>
